<svg width="17" height="20" viewBox="0 0 17 20" fill="none" xmlns="http://www.w3.org/2000/svg">
<path d="M8.26562 9.09375C8.51562 9.09375 8.72656 9.01562 8.875 8.85156L12.0781 5.61719C12.2734 5.42969 12.3594 5.21094 12.3594 4.96094C12.3594 4.72656 12.2656 4.49219 12.0781 4.3125L8.88281 1.05469C8.71875 0.882812 8.51562 0.796875 8.26562 0.796875C7.78125 0.796875 7.40625 1.19531 7.40625 1.6875C7.40625 1.92969 7.49219 2.11719 7.64844 2.28125L9.34375 3.94531C9.03125 3.90625 8.71094 3.88281 8.39844 3.88281C4.50781 3.88281 1.39844 6.99219 1.39844 10.9062C1.39844 14.8125 4.54688 17.9609 8.44531 17.9609C12.3516 17.9609 15.4922 14.8125 15.4922 10.9062C15.4922 10.3594 15.1172 9.98438 14.5859 9.98438C14.0703 9.98438 13.7109 10.3594 13.7109 10.9062C13.7109 13.8203 11.3672 16.1719 8.44531 16.1719C5.53125 16.1719 3.1875 13.8203 3.1875 10.9062C3.1875 7.94531 5.49219 5.60938 8.39844 5.60938C8.84375 5.60938 9.25 5.64062 9.60938 5.69531L7.64844 7.63281C7.49219 7.79688 7.40625 7.98438 7.40625 8.21875C7.40625 8.71094 7.78125 9.09375 8.26562 9.09375Z" fill="#4A4A4A"/>
</svg>
